<?xml version="1.0" standalone="no"?>
<!DOCTYPE svg PUBLIC "-//W3C//DTD SVG 20010904//EN"
 "http://www.w3.org/TR/2001/REC-SVG-20010904/DTD/svg10.dtd">
<svg version="1.0" xmlns="http://www.w3.org/2000/svg"
 width="300.000000pt" height="300.000000pt" viewBox="0 0 300.000000 300.000000"
 preserveAspectRatio="xMidYMid meet">
<metadata>
Created by potrace 1.10, written by Peter Selinger 2001-2011
</metadata>
<g transform="translate(0.000000,300.000000) scale(0.100000,-0.100000)"
fill="#000000" stroke="none">
<path d="M1340 2255 c-173 -41 -294 -109 -410 -231 -146 -154 -220 -336 -220
-544 0 -303 167 -573 439 -711 161 -82 373 -105 546 -60 533 139 768 765 457
1217 -106 155 -269 271 -447 320 -79 22 -291 27 -365 9z m355 -40 c147 -40
307 -145 400 -263 171 -218 213 -515 108 -767 -83 -197 -260 -361 -468 -431
-115 -38 -284 -45 -408 -15 -220 52 -402 196 -501 393 -66 132 -81 198 -80
348 0 146 16 216 75 336 104 213 315 371 555 414 68 12 247 4 319 -15z"/>
<path d="M1388 2210 c-254 -40 -477 -219 -575 -462 -57 -141 -66 -330 -22
-473 39 -128 95 -222 189 -315 97 -97 163 -139 287 -183 83 -30 96 -32 233
-31 129 0 154 3 222 26 210 70 384 230 464 428 126 311 20 682 -251 875 -157
113 -365 164 -547 135z m42 -44 c0 -9 -8 -12 -25 -8 -19 3 -25 0 -25 -13 0
-12 6 -16 19 -12 14 3 23 -3 31 -24 15 -36 7 -49 -33 -49 -30 0 -32 2 -35 42
-1 23 -7 47 -13 54 -8 10 -2 14 23 17 18 2 39 5 46 5 6 1 12 -4 12 -12z m128
2 c17 -17 15 -58 -5 -80 -10 -11 -30 -18 -54 -18 l-37 0 -4 55 -3 55 46 0 c25
0 50 -5 57 -12z m92 -7 c0 -5 -5 -11 -10 -13 -6 -2 -11 -22 -13 -45 -2 -38 -5
-43 -26 -43 -19 0 -21 3 -12 14 6 7 12 32 14 55 2 35 5 41 25 41 12 0 22 -4
22 -9z m-322 -20 c3 -9 -2 -11 -17 -6 -12 3 -21 2 -21 -4 0 -18 21 -66 33 -73
15 -9 9 -13 -26 -22 -20 -5 -27 -3 -22 4 11 18 -4 80 -20 80 -7 0 -15 -5 -17
-12 -3 -8 -7 -6 -11 4 -4 13 4 20 36 31 48 16 59 16 65 -2z m376 -12 c11 -26
14 -28 26 -15 7 9 20 16 28 16 11 0 4 -10 -18 -28 -25 -21 -32 -34 -28 -50 7
-26 8 -25 -29 -11 -25 9 -26 12 -10 20 21 12 22 31 2 69 -14 27 -14 30 0 30 9
0 22 -14 29 -31z m121 -26 c19 -9 35 -23 35 -31 0 -11 -3 -10 -16 2 -19 20
-30 20 -37 1 -7 -16 8 -29 23 -20 12 8 13 -5 1 -23 -7 -11 -9 -11 -14 2 -9 23
-27 20 -27 -4 0 -19 10 -25 39 -20 12 1 13 -1 2 -13 -11 -14 -16 -14 -44 1
-18 9 -33 18 -35 18 -2 1 7 18 19 38 11 20 18 43 15 51 -7 19 -4 19 39 -2z
m-618 -9 c2 -7 -6 -10 -22 -7 -19 4 -25 1 -25 -12 0 -13 6 -15 28 -10 42 9 60
-16 38 -51 -19 -28 -56 -30 -64 -4 -4 12 -2 12 8 3 9 -8 19 -9 32 -2 28 15 22
32 -9 26 -34 -6 -53 1 -53 21 0 37 57 67 67 36z m722 -51 c46 -33 101 -85 101
-94 0 -4 -12 -14 -26 -24 -25 -16 -27 -16 -48 4 -19 18 -25 19 -34 8 -9 -11
-5 -20 18 -42 l29 -28 40 32 40 32 24 -33 c67 -91 69 -99 30 -117 -24 -11 -29
-10 -45 11 -10 13 -18 26 -18 31 0 4 -7 7 -15 7 -20 0 -19 -7 7 -56 l22 -42
43 21 c23 11 46 18 50 14 3 -4 17 -38 29 -75 l23 -67 -21 -8 c-35 -13 -51 -4
-62 35 -8 27 -15 35 -24 29 -10 -6 -11 -17 -1 -54 10 -43 13 -46 38 -41 14 3
36 7 47 10 26 5 34 -17 34 -98 l0 -58 -35 0 c-34 0 -35 1 -35 40 0 29 -4 40
-15 40 -11 0 -15 -12 -15 -49 l0 -48 45 -6 c26 -2 48 -7 51 -10 9 -9 -28 -147
-39 -147 -7 0 -22 3 -35 6 -24 7 -24 14 -6 77 3 11 0 17 -9 17 -8 0 -21 -19
-30 -46 l-15 -46 32 -12 c17 -7 39 -16 49 -19 16 -6 14 -13 -18 -77 -19 -38
-39 -70 -43 -70 -4 0 -18 9 -31 19 l-24 19 21 35 c18 31 18 36 5 41 -9 4 -17
5 -18 4 -1 -2 -12 -21 -24 -43 l-23 -40 23 -15 c67 -44 66 -40 8 -104 l-52
-57 -26 25 -25 26 28 29 c44 46 21 60 -25 16 l-38 -38 32 -39 c18 -23 27 -42
22 -46 -44 -32 -111 -72 -120 -72 -10 0 -35 40 -35 55 0 3 14 11 30 20 25 13
43 45 24 45 -11 0 -84 -45 -84 -53 0 -4 9 -25 20 -47 l20 -38 -43 -16 c-66
-23 -110 -36 -112 -34 -2 2 -6 17 -9 35 -7 30 -6 32 33 44 39 12 50 22 33 33
-4 2 -28 0 -53 -6 l-46 -11 9 -45 c10 -57 4 -62 -84 -62 l-68 0 0 35 c0 35 0
35 43 35 32 0 44 4 44 15 0 11 -13 15 -54 15 l-53 0 0 -51 0 -51 -42 7 c-61
10 -118 27 -118 36 0 4 5 20 10 34 8 21 14 25 33 20 12 -4 30 -9 40 -11 10 -4
17 0 17 9 0 9 -19 22 -44 30 l-45 15 -17 -46 c-10 -26 -19 -49 -20 -50 -1 -2
-34 13 -73 33 -58 31 -69 40 -61 54 25 43 26 44 58 27 38 -19 52 -20 52 -3 0
7 -17 22 -37 32 -21 11 -40 21 -43 22 -3 2 -16 -15 -30 -37 -14 -22 -27 -40
-30 -40 -3 0 -32 23 -64 51 l-58 52 26 26 26 25 30 -29 c44 -42 57 -19 15 26
l-33 37 -36 -30 c-29 -24 -40 -28 -51 -18 -15 13 -75 103 -75 113 0 4 13 13
29 22 29 14 30 14 51 -22 15 -26 24 -33 32 -25 9 9 6 21 -8 48 -10 19 -22 38
-26 40 -4 3 -26 -5 -49 -16 -22 -12 -42 -20 -44 -18 -1 2 -12 29 -24 61 -24
66 -27 97 -8 97 6 0 22 3 33 6 19 5 23 1 29 -35 7 -40 18 -51 30 -31 3 5 1 28
-5 51 l-11 41 -48 -6 c-48 -6 -48 -6 -55 25 -3 17 -6 53 -6 80 l0 49 35 0 c35
0 35 0 35 -45 0 -34 4 -45 16 -45 12 0 14 10 12 53 l-3 52 -45 5 c-50 6 -49 1
-30 98 13 61 14 63 39 57 38 -9 44 -19 33 -59 -9 -32 -8 -36 8 -36 11 0 19 10
23 28 3 15 8 34 12 43 5 13 -4 21 -39 34 -25 10 -46 22 -46 27 0 20 61 128 73
128 6 0 21 -7 32 -16 19 -14 19 -16 2 -45 -20 -37 -22 -49 -4 -49 12 0 64 78
56 84 -2 1 -19 13 -36 25 -18 12 -33 27 -33 33 0 6 21 35 46 65 l47 55 26 -26
25 -26 -29 -30 c-23 -24 -26 -33 -17 -42 10 -10 20 -4 49 24 l36 37 -33 37
-33 38 23 18 c22 18 40 23 40 12 0 -4 -8 -13 -17 -20 -14 -10 -15 -15 -6 -25
10 -10 14 -9 19 4 3 9 10 14 15 11 14 -8 10 -24 -6 -24 -20 0 -19 -14 1 -31
14 -11 18 -11 29 4 8 11 16 14 20 8 3 -6 -22 -37 -57 -69 l-62 -59 -28 20 -28
21 30 31 c22 22 27 34 19 45 -8 12 -17 7 -49 -30 l-40 -45 22 -19 c13 -10 31
-24 41 -31 17 -12 16 -16 -15 -66 -18 -30 -33 -55 -34 -57 -1 -2 -16 4 -33 13
l-31 16 20 38 c18 36 18 51 -1 51 -7 0 -59 -91 -59 -103 0 -2 18 -10 41 -17
22 -8 42 -17 45 -21 2 -4 -3 -34 -12 -66 -16 -59 -16 -59 -51 -55 -36 5 -37 7
-17 73 6 20 -22 33 -29 15 -3 -8 -8 -34 -12 -59 l-7 -45 49 -7 48 -6 0 -62 c0
-61 -1 -62 -30 -69 -40 -9 -45 -4 -45 43 0 29 -4 39 -16 39 -14 0 -16 -9 -12
-55 3 -30 7 -57 9 -59 2 -2 24 -1 49 3 l45 6 17 -60 c18 -65 16 -70 -23 -80
-24 -6 -28 -3 -40 34 -10 29 -18 38 -27 32 -10 -6 -10 -17 4 -57 9 -27 18 -51
19 -52 2 -2 24 6 50 17 43 19 46 19 52 3 4 -9 18 -35 31 -56 l25 -40 -23 -18
c-30 -24 -38 -23 -58 12 -17 30 -42 41 -42 17 0 -16 48 -87 60 -87 4 0 22 11
38 25 17 14 32 25 35 25 2 0 24 -20 48 -44 l45 -44 -23 -28 -22 -28 -30 28
c-46 44 -60 21 -15 -25 21 -22 42 -39 46 -39 4 0 21 17 36 39 l28 39 57 -35
56 -35 -15 -29 c-17 -34 -18 -35 -59 -9 -28 17 -34 18 -38 6 -6 -15 37 -47 79
-60 17 -5 23 0 34 34 7 23 16 43 20 45 3 2 32 -4 65 -13 59 -17 60 -18 57 -49
-4 -36 -19 -41 -65 -24 -19 8 -27 6 -31 -4 -6 -17 -1 -21 44 -30 19 -3 43 -9
53 -11 13 -4 17 1 17 23 0 67 7 73 76 73 56 0 64 -2 64 -19 0 -11 3 -26 6 -35
5 -13 -2 -16 -40 -16 -34 0 -46 -4 -46 -15 0 -12 13 -15 61 -15 53 0 60 2 55
18 -3 9 -6 32 -8 51 -3 34 -3 34 59 51 l62 17 10 -30 c13 -37 9 -43 -34 -51
-35 -7 -44 -19 -25 -31 9 -6 110 22 110 30 0 1 -9 22 -19 46 l-20 43 57 32 57
32 17 -22 c25 -30 22 -38 -17 -61 -24 -14 -32 -24 -26 -33 7 -11 19 -7 59 19
l50 34 -30 38 -31 38 44 45 c24 24 46 44 49 44 3 -1 16 -10 29 -21 l24 -20
-32 -33 c-48 -49 -20 -59 30 -10 21 21 39 41 39 45 0 3 -18 18 -39 33 l-39 28
31 51 c17 29 32 54 34 56 4 6 63 -20 63 -28 0 -3 -9 -20 -20 -38 -13 -21 -16
-35 -9 -39 15 -9 35 13 54 58 l15 38 -36 15 c-20 8 -40 15 -45 15 -12 0 -12 1
8 70 13 49 20 60 37 60 39 0 49 -14 38 -54 -7 -24 -7 -38 0 -42 17 -11 28 10
35 64 l6 51 -44 3 -44 3 -3 68 -3 67 36 0 c34 0 35 -1 35 -40 0 -29 4 -40 15
-40 12 0 15 13 15 56 l0 57 -53 -7 -54 -6 -11 48 c-6 26 -13 54 -17 63 -4 11
0 18 12 22 10 2 26 8 35 12 13 5 19 -2 29 -34 15 -50 44 -58 34 -9 -4 17 -13
44 -19 59 l-12 28 -43 -20 c-24 -11 -45 -18 -46 -17 -49 75 -65 112 -53 120
45 30 48 30 69 -6 13 -22 26 -33 35 -29 12 4 10 12 -8 45 -35 62 -42 64 -86
30 l-38 -30 -38 43 c-21 24 -50 48 -63 54 -25 11 -25 12 -5 29 31 27 55 69 43
77 -6 3 -15 3 -21 0 -11 -7 -14 8 -3 18 10 10 13 9 52 -20z m-311 -8 c18 -1
38 -7 45 -14 6 -6 22 -11 37 -11 14 0 36 -9 50 -20 14 -11 33 -20 43 -20 9 0
17 -4 17 -10 0 -5 32 -40 71 -77 80 -77 129 -159 159 -270 23 -86 26 -206 6
-254 -8 -19 -16 -47 -19 -64 -13 -78 -146 -244 -232 -287 -22 -11 -47 -26 -55
-33 -31 -26 -185 -57 -262 -52 -77 4 -193 32 -218 52 -8 6 -36 24 -62 38 -103
59 -201 196 -238 334 -38 143 -14 293 69 425 40 62 99 121 85 83 -7 -18 18
-60 44 -74 13 -7 30 -6 53 2 58 21 62 26 56 74 l-5 44 25 -16 c20 -13 31 -14
56 -6 17 6 46 8 64 5 22 -4 41 -1 58 10 15 10 46 16 80 16 46 0 59 -4 77 -25
13 -15 32 -25 48 -25 16 0 50 -18 86 -45 65 -49 80 -53 100 -27 19 24 17 52
-4 71 -10 9 -28 31 -41 49 -17 24 -29 32 -43 29 -11 -3 -41 10 -76 33 -55 37
-57 38 -84 22 -25 -15 -29 -15 -46 1 -10 9 -27 17 -38 17 -10 0 -26 4 -34 10
-13 8 -13 10 0 14 34 11 56 14 75 9 11 -3 35 -7 53 -8z m-220 -5 c26 -1 26 -1
-11 -24 -24 -14 -47 -21 -63 -18 l-25 5 22 24 c13 13 29 21 37 18 7 -3 26 -5
40 -5z m-114 -29 c3 -4 -5 -18 -19 -31 -13 -12 -22 -27 -19 -34 5 -13 -50 -36
-82 -36 -14 1 -4 15 41 55 62 56 70 61 79 46z m187 -8 c1 -10 1 -23 0 -30 -1
-6 4 -15 10 -19 8 -5 10 1 7 20 -7 33 0 33 29 0 20 -23 22 -24 20 -6 0 12 -6
18 -12 15 -5 -3 -5 0 2 7 16 17 33 4 33 -26 0 -17 -5 -24 -19 -24 -11 0 -22 4
-25 9 -7 11 -66 -16 -66 -30 0 -5 -11 -9 -23 -9 -22 0 -24 5 -26 48 -1 34 3
49 12 49 21 0 36 -22 26 -38 -6 -10 -9 -10 -9 -1 0 6 -5 12 -11 12 -18 0 -4
-23 20 -32 22 -8 23 -6 19 32 -2 22 0 40 4 40 5 0 9 -8 9 -17z m179 -32 c0
-16 3 -37 6 -45 5 -12 2 -15 -9 -10 -9 3 -13 12 -10 20 3 8 -1 14 -11 14 -9 0
-16 -4 -16 -10 0 -5 -7 -10 -15 -10 -21 0 -19 4 13 38 35 38 42 39 42 3z
m-339 -1 c-12 -7 -12 -13 3 -35 15 -23 16 -29 5 -36 -10 -6 -16 0 -20 22 -7
31 -19 51 -19 31 0 -7 -4 -12 -10 -12 -20 0 -10 20 18 34 28 15 47 12 23 -4z
m72 -12 c6 -22 -6 -38 -30 -38 -7 0 -13 4 -13 9 0 5 -3 16 -6 25 -3 9 -1 16 5
16 6 0 11 -6 11 -14 0 -8 5 -18 11 -22 9 -5 10 1 5 20 -3 14 -2 26 3 26 5 0
11 -10 14 -22z m307 -15 c0 -14 2 -15 9 -4 5 8 11 9 15 3 8 -14 -53 -64 -67
-55 -8 5 -6 9 6 11 11 2 17 13 17 33 0 16 5 29 10 29 6 0 10 -8 10 -17z m100
-18 c0 -3 -7 -17 -16 -31 -20 -29 -9 -48 12 -20 10 15 14 16 14 5 0 -8 -5 -20
-12 -27 -9 -9 -9 -12 0 -12 6 0 15 8 20 17 9 16 11 16 27 0 11 -11 14 -24 9
-35 -4 -9 -6 -20 -6 -24 1 -5 -2 -8 -8 -8 -14 0 -13 23 2 38 9 9 8 12 -4 12
-9 0 -18 -5 -20 -12 -3 -8 -22 2 -51 26 -49 40 -55 72 -11 63 13 -2 24 0 24 4
0 5 5 9 10 9 6 0 10 -2 10 -5z m-541 -77 c1 -16 -3 -28 -8 -28 -5 0 -7 9 -4
20 3 11 1 20 -3 20 -5 0 -16 4 -24 10 -12 7 -11 12 5 30 l20 22 6 -24 c4 -12
7 -35 8 -50z m-69 22 c0 -5 7 -10 15 -10 19 0 20 -34 1 -49 -21 -17 -72 34
-55 55 13 16 39 19 39 4z"/>
<path d="M1397 2113 c-14 -13 -6 -33 13 -33 11 0 20 4 20 9 0 13 -26 32 -33
24z"/>
<path d="M1490 2125 c0 -32 4 -45 14 -45 17 0 46 27 46 41 0 23 -22 49 -40 49
-17 0 -20 -7 -20 -45z"/>
<path d="M1907 1985 c-28 -42 -25 -72 4 -37 22 28 34 28 53 0 13 -18 18 -20
28 -10 10 10 5 20 -24 48 l-36 36 -25 -37z"/>
<path d="M1393 1808 c-11 -13 -28 -38 -38 -57 l-17 -33 -21 31 c-12 17 -29 31
-38 31 -19 0 -44 -27 -53 -57 -5 -16 -15 -23 -31 -23 -28 0 -50 -29 -60 -76
-4 -20 -12 -31 -22 -30 -24 2 -57 -50 -56 -88 1 -44 26 -92 75 -142 34 -36 38
-45 29 -62 -6 -11 -11 -28 -11 -36 0 -26 60 -85 93 -92 21 -4 39 -17 52 -37
26 -41 68 -62 94 -48 31 17 33 41 6 77 -31 40 -32 65 -4 90 29 26 52 73 45 91
-4 9 -3 37 0 64 6 44 10 50 55 78 60 37 78 74 56 113 -15 25 -14 30 6 67 21
39 21 40 3 60 -11 12 -29 21 -42 21 -16 0 -28 11 -41 38 -22 45 -50 52 -80 20z
m57 -55 c0 -19 -10 -43 -24 -60 -27 -33 -49 -73 -40 -73 3 0 27 17 53 39 92
76 136 82 71 9 -30 -35 -53 -51 -88 -60 -39 -11 -53 -22 -79 -62 -18 -26 -33
-52 -33 -57 0 -5 21 6 48 25 26 18 65 39 87 46 22 7 52 19 68 27 32 16 35 5 6
-31 -27 -34 -68 -55 -148 -76 -60 -15 -66 -19 -74 -49 -13 -53 -3 -72 16 -28
16 38 54 61 82 51 39 -15 -12 -88 -63 -89 -31 0 -37 -18 -27 -72 l6 -35 17 33
c9 18 32 42 50 52 30 17 32 18 32 2 0 -10 -20 -38 -45 -63 -44 -43 -45 -47
-35 -78 6 -18 25 -44 41 -58 30 -26 24 -42 -11 -31 -21 7 -50 53 -50 80 0 8
-6 15 -12 15 -9 0 -10 3 -2 8 22 15 -5 71 -47 100 -62 41 -129 103 -145 133
-15 30 -18 69 -8 107 9 31 24 28 24 -5 0 -20 15 -40 56 -78 30 -28 66 -74 79
-101 l24 -49 1 38 c0 41 -23 93 -76 170 -26 37 -34 60 -34 91 0 24 3 46 7 49
3 4 21 -17 40 -46 31 -49 43 -78 58 -152 l7 -30 14 43 c16 46 7 99 -21 132
-22 25 -28 67 -15 104 12 38 30 48 30 17 0 -10 9 -40 21 -66 13 -30 20 -61 17
-86 -4 -39 -3 -39 13 -18 9 12 19 46 22 74 5 48 33 120 60 153 14 18 27 -3 27
-45z m-181 -479 c25 -31 27 -52 6 -60 -40 -16 -105 35 -91 71 9 25 62 18 85
-11z"/>
<path d="M1550 1800 c-7 -4 3 -10 27 -15 117 -22 209 -103 238 -210 19 -70 17
-101 -15 -169 -25 -56 -25 -82 0 -124 27 -43 25 -51 -10 -63 -18 -7 -30 -18
-30 -29 0 -10 -6 -23 -14 -29 -8 -7 -20 -32 -27 -57 -8 -25 -23 -51 -33 -56
-24 -13 -188 -4 -231 12 -27 10 -28 10 -15 -4 31 -32 202 -48 249 -23 15 7 33
32 45 62 23 56 30 67 69 103 32 31 33 39 10 102 -17 48 -17 50 6 105 40 97 18
226 -51 297 -59 59 -187 117 -218 98z"/>
<path d="M1536 1771 c5 -5 33 -16 62 -25 90 -26 159 -85 179 -152 7 -21 15
-49 18 -60 6 -24 -5 -76 -31 -145 -16 -41 -16 -52 -5 -87 13 -39 13 -41 -23
-94 -20 -30 -36 -61 -36 -67 0 -7 -8 -26 -17 -43 l-18 -30 -85 5 c-47 3 -95 9
-107 13 -13 3 -23 2 -23 -4 0 -11 106 -32 163 -32 52 0 87 16 87 39 0 11 5 23
10 26 6 3 10 15 10 26 0 11 7 22 15 25 8 4 15 17 15 30 0 17 7 25 25 30 28 7
30 18 10 54 -20 35 -18 88 5 135 63 130 -19 292 -173 344 -65 23 -97 27 -81
12z"/>
</g>
</svg>
